# xmcd CD database file generated by MAGIX-FreeDB-PlayR v2.0beta1
# 
# Track frame offsets:
#      180
#      22351
#      52877
#      80776
#      96302
#      130277
#      180227
#      197177
# 
# Disc length: 3005 seconds
# 
# Revision: 4 
# Processed by: cddbd v1.5.2PL0 Copyright (c) Steve Scherf et al.
# Submitted via: MAGIX-FreeDB-PlayR v2.0beta1
# 
DISCID=6d0bbb08
DTITLE=On the corner - meets Benny Bailey
DYEAR=1996
DGENRE=Jazz
TTITLE0=On the corner - Check it out
TTITLE1=On the corner - North star street
TTITLE2=On the corner - Sail away
TTITLE3=On the corner - You and the night and the music
TTITLE4=On the corner - The night we called it a day
TTITLE5=On the corner - Blues for Lady J
TTITLE6=On the corner - Satin doll
TTITLE7=On the corner - Soul eyes
EXTD=YEAR: 1996
EXTT0=
EXTT1=
EXTT2=
EXTT3=
EXTT4=
EXTT5=
EXTT6=
EXTT7=
PLAYORDER=
